# xmcd
#
# Track frame offsets:
# 150
# 27810
# 54666
# 72892
# 92786
# 113633
# 139412
# 157324
# 174151
# 202938
#
# Disc length: 2907 seconds
#
#
# Revision: 0
# Processed by: cddbd v1.4PL0 Copyright (c) Steve Scherf et al.
# Submitted via: FreeRIP 2.35 
#
DISCID=860b590a
DTITLE=Various Artist - Night Lights
DYEAR=2003
DGENRE=Blues
TTITLE0=Alice Hoskins  What's A Woman To do
TTITLE1=Big Joe Duskin  Kangaroo Girl
TTITLE2=Anita Wells/John White  Just When
TTITLE3=William A. Williams  Doc Johnson International Love Tonic
TTITLE4=R. Yeardley/M. Brandt  Coast Don't Boast
TTITLE5=Greg Schaber  Nobody Home
TTITLE6=LeRoy Ellington  Let's Make Love
TTITLE7=Marcos Sastre/Chris Arduser  Tear It All Down
TTITLE8=Mr. Keith Little  I'll Rise Above It All
TTITLE9=Thomas Lomax  White Rhino
EXTD=
EXTT0=
EXTT1=
EXTT2=
EXTT3=
EXTT4=
EXTT5=
EXTT6=
EXTT7=
EXTT8=
EXTT9=
PLAYORDER=
